<svg width="24" height="24" viewBox="0 0 24 24" fill="none" xmlns="http://www.w3.org/2000/svg">
<path d="M3.69231 6.46153C4.07466 6.46153 4.38462 6.15157 4.38462 5.76923C4.38462 5.38688 4.07466 5.07692 3.69231 5.07692C3.30996 5.07692 3 5.38688 3 5.76923C3 6.15157 3.30996 6.46153 3.69231 6.46153Z" fill="black" stroke="black" stroke-linecap="round" stroke-linejoin="round"/>
<path d="M8.53845 5.76923H21" stroke="black" stroke-linecap="round" stroke-linejoin="round"/>
<path d="M3.69231 12.6923C4.07466 12.6923 4.38462 12.3823 4.38462 12C4.38462 11.6176 4.07466 11.3077 3.69231 11.3077C3.30996 11.3077 3 11.6176 3 12C3 12.3823 3.30996 12.6923 3.69231 12.6923Z" fill="black" stroke="black" stroke-linecap="round" stroke-linejoin="round"/>
<path d="M8.53845 12H21" stroke="black" stroke-linecap="round" stroke-linejoin="round"/>
<path d="M3.69231 18.9231C4.07466 18.9231 4.38462 18.6131 4.38462 18.2308C4.38462 17.8485 4.07466 17.5385 3.69231 17.5385C3.30996 17.5385 3 17.8485 3 18.2308C3 18.6131 3.30996 18.9231 3.69231 18.9231Z" fill="black" stroke="black" stroke-linecap="round" stroke-linejoin="round"/>
<path d="M8.53845 18.2308H21" stroke="black" stroke-linecap="round" stroke-linejoin="round"/>
</svg>
