<svg width="100" height="122" viewBox="0 0 100 122" fill="none" xmlns="http://www.w3.org/2000/svg">
<g clip-path="url(#clip0_1116_1919)">
<path d="M0.5 117.472C0.5 119.972 2.53112 122.004 5.03873 122.004H94.9653C97.4729 122.004 99.504 119.976 99.504 117.472V36.4205H0.5V117.472Z" fill="#F0F0F0"/>
<path d="M94.9613 10.7181H5.03873C2.53112 10.7181 0.5 12.7464 0.5 15.2505V36.4246H99.5V15.2505C99.5 12.7464 97.4689 10.7181 94.9613 10.7181Z" fill="#1273EB"/>
<path d="M27.9988 29.3961C30.8757 29.3961 33.2079 27.0672 33.2079 24.1943C33.2079 21.3215 30.8757 18.9926 27.9988 18.9926C25.122 18.9926 22.7898 21.3215 22.7898 24.1943C22.7898 27.0672 25.122 29.3961 27.9988 29.3961Z" fill="#100C25"/>
<path d="M26.9005 21.408C25.4023 21.408 24.1909 20.1982 24.1909 18.7022V7.39136C24.1909 6.08486 25.0753 4.87918 26.3594 4.6332C28.0876 4.29851 29.61 5.61711 29.61 7.28652V10.7181H34.1971V7.54459C34.1931 3.66543 31.2736 0.274188 27.3971 0.0161149C23.1491 -0.266152 19.6038 3.10089 19.6038 7.28652V18.4683C19.6038 22.2668 22.4183 25.6057 26.2099 25.9565C26.6138 25.9928 27.0135 25.9968 27.4052 25.9726C30.2924 25.775 30.0541 21.412 27.1589 21.412H26.9005V21.408Z" fill="#F0F0F0"/>
<path d="M69.5379 29.3961C72.4148 29.3961 74.7469 27.0672 74.7469 24.1943C74.7469 21.3215 72.4148 18.9926 69.5379 18.9926C66.661 18.9926 64.3289 21.3215 64.3289 24.1943C64.3289 27.0672 66.661 29.3961 69.5379 29.3961Z" fill="#100C25"/>
<path d="M68.4355 21.4079C66.9374 21.4079 65.726 20.1982 65.726 18.7022V7.39136C65.726 6.08486 66.6103 4.87918 67.8944 4.6332C69.6227 4.29851 71.145 5.6171 71.145 7.28651V10.7181H75.7322V7.54459C75.7322 3.66946 72.8086 0.278216 68.9362 0.0201432C64.6882 -0.262124 61.1428 3.10492 61.1428 7.29055V18.4724C61.1428 22.2709 63.9573 25.6097 67.749 25.9605C68.1528 25.9968 68.5526 26.0008 68.9443 25.9766C71.8314 25.7791 71.5932 21.416 68.6979 21.416H68.4395L68.4355 21.4079Z" fill="#F0F0F0"/>
<path d="M30.1795 48.679H15.3721V63.4658H30.1795V48.679Z" fill="white"/>
<path d="M30.1795 70.4499H15.3721V85.2367H30.1795V70.4499Z" fill="white"/>
<path d="M30.1795 92.2208H15.3721V107.008H30.1795V92.2208Z" fill="white"/>
<path d="M55.304 48.679H40.4966V63.4658H55.304V48.679Z" fill="#1273EB"/>
<path d="M55.304 70.4499H40.4966V85.2367H55.304V70.4499Z" fill="white"/>
<path d="M55.304 92.2208H40.4966V107.008H55.304V92.2208Z" fill="white"/>
<path d="M80.4285 48.679H65.6211V63.4658H80.4285V48.679Z" fill="#1273EB"/>
<path d="M80.4285 70.4499H65.6211V85.2367H80.4285V70.4499Z" fill="#1273EB"/>
<path d="M80.4285 92.2208H65.6211V107.008H80.4285V92.2208Z" fill="white"/>
</g>
<defs>
<clipPath id="clip0_1116_1919">
<rect width="99" height="122" fill="white" transform="translate(0.5)"/>
</clipPath>
</defs>
</svg>
