<svg width="24" height="18" viewBox="0 0 24 18" fill="none" xmlns="http://www.w3.org/2000/svg">
<path d="M22.8687 3.99068H8.0602C7.74315 3.99068 7.47144 3.71866 7.47144 3.40125C7.47144 3.08385 7.74315 2.81183 8.0602 2.81183H22.8687C23.1857 2.81183 23.4575 3.08385 23.4575 3.40125C23.4573 3.71866 23.1856 3.99068 22.8687 3.99068Z" fill="black"/>
<path d="M3.44083 3.99052H1.13125C0.814196 3.99052 0.54248 3.7185 0.54248 3.40125C0.54248 3.08385 0.814196 2.81183 1.13125 2.81183H3.44083C3.75788 2.81183 4.0296 3.08385 4.0296 3.40125C4.02944 3.7185 3.80306 3.99052 3.44083 3.99052Z" fill="black"/>
<path d="M22.8688 9.56688H18.9743C18.6572 9.56688 18.3855 9.29486 18.3855 8.97746C18.3855 8.66005 18.6572 8.38803 18.9743 8.38803H22.8688C23.1859 8.38803 23.4576 8.66005 23.4576 8.97746C23.4576 9.29486 23.1857 9.56688 22.8688 9.56688Z" fill="black"/>
<path d="M14.3554 9.56673H1.13198C0.814928 9.56673 0.543213 9.29471 0.543213 8.97746C0.543213 8.66021 0.814928 8.38803 1.13198 8.38803H14.3555C14.6726 8.38803 14.9443 8.66005 14.9443 8.97746C14.9443 9.29486 14.6724 9.56673 14.3554 9.56673Z" fill="black"/>
<path d="M22.8687 15.1892H8.0602C7.74315 15.1892 7.47144 14.9172 7.47144 14.5998C7.47144 14.2824 7.74315 14.0103 8.0602 14.0103H22.8687C23.1857 14.0103 23.4575 14.2824 23.4575 14.5998C23.4573 14.9172 23.1856 15.1892 22.8687 15.1892Z" fill="black"/>
<path d="M3.44107 15.1892H1.13149C0.81444 15.1892 0.542725 14.9172 0.542725 14.5998C0.542725 14.2371 0.81444 13.9651 1.13149 13.9651H3.44107C3.75813 13.9651 4.02984 14.2371 4.02984 14.5545C4.07502 14.9172 3.80331 15.1892 3.44107 15.1892Z" fill="black"/>
<path d="M5.75064 6.30243C4.16569 6.30243 2.85229 4.98772 2.85229 3.40085C2.85229 1.81397 4.16553 0.49942 5.75064 0.49942C7.33575 0.49942 8.64883 1.81412 8.64883 3.401C8.64883 4.98788 7.38093 6.30243 5.75064 6.30243ZM5.75064 1.67811C4.79964 1.67811 4.02983 2.44878 4.02983 3.40085C4.02983 4.35291 4.79964 5.12358 5.75064 5.12358C6.70165 5.12358 7.47145 4.35291 7.47145 3.40085C7.47145 2.44878 6.70165 1.67811 5.75064 1.67811Z" fill="black"/>
<path d="M16.6649 11.8806C15.08 11.8806 13.7666 10.5659 13.7666 8.97907C13.7666 7.39219 15.0798 6.07748 16.6649 6.07748C18.2501 6.07748 19.5633 7.39219 19.5633 8.97907C19.5633 10.5659 18.2952 11.8806 16.6649 11.8806ZM16.6649 7.25634C15.7139 7.25634 14.9441 8.027 14.9441 8.97907C14.9441 9.93113 15.7139 10.7018 16.6649 10.7018C17.616 10.7018 18.3858 9.93113 18.3858 8.97907C18.3859 8.02716 17.616 7.25634 16.6649 7.25634Z" fill="black"/>
<path d="M5.75064 17.5006C4.16569 17.5006 2.85229 16.1858 2.85229 14.599C2.85229 12.9669 4.16553 11.6974 5.75064 11.6974C7.33575 11.6974 8.64899 13.0121 8.64899 14.599C8.69417 16.1858 7.38093 17.5006 5.75064 17.5006ZM5.75064 12.8762C4.79964 12.8762 4.02983 13.6469 4.02983 14.599C4.02983 15.551 4.79964 16.3217 5.75064 16.3217C6.70165 16.3217 7.47145 15.551 7.47145 14.599C7.47145 13.6469 6.70165 12.8762 5.75064 12.8762Z" fill="black"/>
</svg>
