<svg width="20" height="20" viewBox="0 0 20 20" fill="none" xmlns="http://www.w3.org/2000/svg">
<path d="M16.0576 7.30769C16.0576 11.3462 9.99995 16.0577 9.99995 16.0577C9.99995 16.0577 3.94226 11.3462 3.94226 7.30769C3.94226 4.00827 6.70053 1.25 9.99995 1.25C13.2994 1.25 16.0576 4.00827 16.0576 7.30769Z" stroke="#3E3E3E" stroke-linecap="round" stroke-linejoin="round"/>
<path d="M10.0001 9.32696C10.5356 9.32696 11.0492 9.11422 11.4279 8.73554C11.8066 8.35686 12.0193 7.84326 12.0193 7.30773C12.0193 6.7722 11.8066 6.2586 11.4279 5.87992C11.0492 5.50124 10.5356 5.2885 10.0001 5.2885C9.46453 5.2885 8.95093 5.50124 8.57225 5.87992C8.19357 6.2586 7.98083 6.7722 7.98083 7.30773C7.98083 7.84326 8.19357 8.35686 8.57225 8.73554C8.95093 9.11422 9.46453 9.32696 10.0001 9.32696Z" stroke="#3E3E3E" stroke-linecap="round" stroke-linejoin="round"/>
<path d="M15.4883 14.0384H16.7308L18.75 18.75H1.25L3.26923 14.0384H4.51173" stroke="#3E3E3E" stroke-linecap="round" stroke-linejoin="round"/>
</svg>
